<?xml version="1.0" encoding="UTF-8" standalone="no"?>
<!DOCTYPE svg PUBLIC "-//W3C//DTD SVG 1.1//EN"
 "http://www.w3.org/Graphics/SVG/1.1/DTD/svg11.dtd">
<!-- Generated by graphviz version 8.0.3 (0)
 -->
<!-- Title: snakemake_dag Pages: 1 -->
<svg width="816pt" height="342pt"
 viewBox="0.00 0.00 816.00 342.00" xmlns="http://www.w3.org/2000/svg" xmlns:xlink="http://www.w3.org/1999/xlink">
<g id="graph0" class="graph" transform="scale(1 1) rotate(0) translate(4 338)">
<title>snakemake_dag</title>
<polygon fill="white" stroke="none" points="-4,4 -4,-338 812,-338 812,4 -4,4"/>
<!-- 0 -->
<g id="node1" class="node">
<title>0</title>
<path fill="none" stroke="#d6d856" stroke-width="2" d="M284,-36C284,-36 254,-36 254,-36 248,-36 242,-30 242,-24 242,-24 242,-12 242,-12 242,-6 248,0 254,0 254,0 284,0 284,0 290,0 296,-6 296,-12 296,-12 296,-24 296,-24 296,-30 290,-36 284,-36"/>
<text text-anchor="middle" x="269" y="-15.5" font-family="sans" font-size="10.00">all</text>
</g>
<!-- 1 -->
<g id="node2" class="node">
<title>1</title>
<path fill="none" stroke="#569ad8" stroke-width="2" d="M288,-108C288,-108 250,-108 250,-108 244,-108 238,-102 238,-96 238,-96 238,-84 238,-84 238,-78 244,-72 250,-72 250,-72 288,-72 288,-72 294,-72 300,-78 300,-84 300,-84 300,-96 300,-96 300,-102 294,-108 288,-108"/>
<text text-anchor="middle" x="269" y="-87.5" font-family="sans" font-size="10.00">try_cluster</text>
</g>
<!-- 1&#45;&gt;0 -->
<g id="edge1" class="edge">
<title>1&#45;&gt;0</title>
<path fill="none" stroke="grey" stroke-width="2" d="M269,-71.34C269,-64.75 269,-57.08 269,-49.67"/>
<polygon fill="grey" stroke="grey" stroke-width="2" points="272.5,-49.9 269,-39.9 265.5,-49.9 272.5,-49.9"/>
</g>
<!-- 2 -->
<g id="node3" class="node">
<title>2</title>
<path fill="none" stroke="#56d8d8" stroke-width="2" d="M42,-182.5C42,-182.5 12,-182.5 12,-182.5 6,-182.5 0,-176.5 0,-170.5 0,-170.5 0,-158.5 0,-158.5 0,-152.5 6,-146.5 12,-146.5 12,-146.5 42,-146.5 42,-146.5 48,-146.5 54,-152.5 54,-158.5 54,-158.5 54,-170.5 54,-170.5 54,-176.5 48,-182.5 42,-182.5"/>
<text text-anchor="middle" x="27" y="-162" font-family="sans" font-size="10.00">canu</text>
</g>
<!-- 2&#45;&gt;1 -->
<g id="edge2" class="edge">
<title>2&#45;&gt;1</title>
<path fill="none" stroke="grey" stroke-width="2" d="M54.99,-147.5C57.66,-146.23 60.35,-145.04 63,-144 116.93,-122.83 182.13,-107.7 224.53,-99.16"/>
<polygon fill="grey" stroke="grey" stroke-width="2" points="226.05,-102.03 235.19,-96.67 224.7,-95.17 226.05,-102.03"/>
</g>
<!-- 3 -->
<g id="node4" class="node">
<title>3</title>
<path fill="none" stroke="#59d856" stroke-width="2" d="M284,-257C284,-257 254,-257 254,-257 248,-257 242,-251 242,-245 242,-245 242,-233 242,-233 242,-227 248,-221 254,-221 254,-221 284,-221 284,-221 290,-221 296,-227 296,-233 296,-233 296,-245 296,-245 296,-251 290,-257 284,-257"/>
<text text-anchor="middle" x="269" y="-236.5" font-family="sans" font-size="10.00">qc</text>
</g>
<!-- 3&#45;&gt;2 -->
<g id="edge6" class="edge">
<title>3&#45;&gt;2</title>
<path fill="none" stroke="grey" stroke-width="2" d="M241,-233.06C203.01,-225.88 133.05,-210.97 66.86,-186.09"/>
<polygon fill="grey" stroke="grey" stroke-width="2" points="67.57,-182.84 56.99,-182.5 65.05,-189.37 67.57,-182.84"/>
</g>
<!-- 5 -->
<g id="node6" class="node">
<title>5</title>
<path fill="none" stroke="#56d89a" stroke-width="2" d="M114,-182.5C114,-182.5 84,-182.5 84,-182.5 78,-182.5 72,-176.5 72,-170.5 72,-170.5 72,-158.5 72,-158.5 72,-152.5 78,-146.5 84,-146.5 84,-146.5 114,-146.5 114,-146.5 120,-146.5 126,-152.5 126,-158.5 126,-158.5 126,-170.5 126,-170.5 126,-176.5 120,-182.5 114,-182.5"/>
<text text-anchor="middle" x="99" y="-162" font-family="sans" font-size="10.00">miniasm</text>
</g>
<!-- 3&#45;&gt;5 -->
<g id="edge8" class="edge">
<title>3&#45;&gt;5</title>
<path fill="none" stroke="grey" stroke-width="2" d="M241.13,-228.09C216.15,-218.97 178.34,-204.59 138.35,-186.33"/>
<polygon fill="grey" stroke="grey" stroke-width="2" points="139.28,-182.98 128.74,-181.95 136.34,-189.33 139.28,-182.98"/>
</g>
<!-- 6 -->
<g id="node7" class="node">
<title>6</title>
<path fill="none" stroke="#97d856" stroke-width="2" d="M724,-185C724,-185 156,-185 156,-185 150,-185 144,-179 144,-173 144,-173 144,-156 144,-156 144,-150 150,-144 156,-144 156,-144 724,-144 724,-144 730,-144 736,-150 736,-156 736,-156 736,-173 736,-173 736,-179 730,-185 724,-185"/>
<text text-anchor="middle" x="440" y="-173" font-family="sans" font-size="10.00">flye</text>
<text text-anchor="middle" x="440" y="-162" font-family="sans" font-size="10.00">RUN_DATE: 20230413</text>
<text text-anchor="middle" x="440" y="-151" font-family="sans" font-size="10.00">TEMP_RUN_DIR: /Users/ethaneickmann/Documents/Comp_genomics/uhlemann/meta&#45;wgs&#45;ont&#45;pipeline/temp/20230413.FAR73398</text>
</g>
<!-- 3&#45;&gt;6 -->
<g id="edge9" class="edge">
<title>3&#45;&gt;6</title>
<path fill="none" stroke="grey" stroke-width="2" d="M296.85,-226.19C319.3,-216.68 351.65,-202.96 379.93,-190.97"/>
<polygon fill="grey" stroke="grey" stroke-width="2" points="381.92,-194.08 389.76,-186.95 379.18,-187.63 381.92,-194.08"/>
</g>
<!-- 7 -->
<g id="node8" class="node">
<title>7</title>
<path fill="none" stroke="#d85656" stroke-width="2" d="M796,-182.5C796,-182.5 766,-182.5 766,-182.5 760,-182.5 754,-176.5 754,-170.5 754,-170.5 754,-158.5 754,-158.5 754,-152.5 760,-146.5 766,-146.5 766,-146.5 796,-146.5 796,-146.5 802,-146.5 808,-152.5 808,-158.5 808,-158.5 808,-170.5 808,-170.5 808,-176.5 802,-182.5 796,-182.5"/>
<text text-anchor="middle" x="781" y="-162" font-family="sans" font-size="10.00">raven</text>
</g>
<!-- 3&#45;&gt;7 -->
<g id="edge10" class="edge">
<title>3&#45;&gt;7</title>
<path fill="none" stroke="grey" stroke-width="2" d="M296.86,-238.58C369.63,-239.33 571,-236.54 740.73,-185.73"/>
<polygon fill="grey" stroke="grey" stroke-width="2" points="742.63,-188.19 751.16,-181.9 740.57,-181.5 742.63,-188.19"/>
</g>
<!-- 4 -->
<g id="node5" class="node">
<title>4</title>
<path fill="none" stroke="#d89556" stroke-width="2" d="M313.5,-334C313.5,-334 224.5,-334 224.5,-334 218.5,-334 212.5,-328 212.5,-322 212.5,-322 212.5,-305 212.5,-305 212.5,-299 218.5,-293 224.5,-293 224.5,-293 313.5,-293 313.5,-293 319.5,-293 325.5,-299 325.5,-305 325.5,-305 325.5,-322 325.5,-322 325.5,-328 319.5,-334 313.5,-334"/>
<text text-anchor="middle" x="269" y="-322" font-family="sans" font-size="10.00">concatenate</text>
<text text-anchor="middle" x="269" y="-311" font-family="sans" font-size="10.00">barcode: [&#39;barcode01&#39;]</text>
<text text-anchor="middle" x="269" y="-300" font-family="sans" font-size="10.00">sample: 30371</text>
</g>
<!-- 4&#45;&gt;3 -->
<g id="edge7" class="edge">
<title>4&#45;&gt;3</title>
<path fill="none" stroke="grey" stroke-width="2" d="M269,-292.3C269,-285.58 269,-277.93 269,-270.6"/>
<polygon fill="grey" stroke="grey" stroke-width="2" points="272.5,-270.62 269,-260.62 265.5,-270.62 272.5,-270.62"/>
</g>
<!-- 5&#45;&gt;1 -->
<g id="edge3" class="edge">
<title>5&#45;&gt;1</title>
<path fill="none" stroke="grey" stroke-width="2" d="M126.74,-148.05C129.51,-146.64 132.29,-145.26 135,-144 164.55,-130.21 198.75,-116.72 225.21,-106.8"/>
<polygon fill="grey" stroke="grey" stroke-width="2" points="226.98,-110.14 235.14,-103.37 224.55,-103.57 226.98,-110.14"/>
</g>
<!-- 6&#45;&gt;1 -->
<g id="edge4" class="edge">
<title>6&#45;&gt;1</title>
<path fill="none" stroke="grey" stroke-width="2" d="M391.91,-143.11C366.98,-132.54 336.77,-119.73 312.53,-109.46"/>
<polygon fill="grey" stroke="grey" stroke-width="2" points="313.39,-106.17 302.82,-105.49 310.66,-112.62 313.39,-106.17"/>
</g>
<!-- 7&#45;&gt;1 -->
<g id="edge5" class="edge">
<title>7&#45;&gt;1</title>
<path fill="none" stroke="grey" stroke-width="2" d="M753.16,-147.1C750.46,-145.91 747.71,-144.85 745,-144 591.92,-96.03 399.22,-90.26 313.57,-90.33"/>
<polygon fill="grey" stroke="grey" stroke-width="2" points="313.74,-86.84 303.76,-90.39 313.78,-93.84 313.74,-86.84"/>
</g>
</g>
</svg>
