<?xml version="1.0" encoding="UTF-8" standalone="no"?>
<!DOCTYPE svg PUBLIC "-//W3C//DTD SVG 1.1//EN"
 "http://www.w3.org/Graphics/SVG/1.1/DTD/svg11.dtd">
<!-- Generated by graphviz version 8.0.3 (0)
 -->
<!-- Title: snakemake_dag Pages: 1 -->
<svg width="818pt" height="265pt"
 viewBox="0.00 0.00 818.00 265.00" xmlns="http://www.w3.org/2000/svg" xmlns:xlink="http://www.w3.org/1999/xlink">
<g id="graph0" class="graph" transform="scale(1 1) rotate(0) translate(4 261)">
<title>snakemake_dag</title>
<polygon fill="white" stroke="none" points="-4,4 -4,-261 814,-261 814,4 -4,4"/>
<!-- 0 -->
<g id="node1" class="node">
<title>0</title>
<path fill="none" stroke="#d85656" stroke-width="2" d="M285,-36C285,-36 255,-36 255,-36 249,-36 243,-30 243,-24 243,-24 243,-12 243,-12 243,-6 249,0 255,0 255,0 285,0 285,0 291,0 297,-6 297,-12 297,-12 297,-24 297,-24 297,-30 291,-36 285,-36"/>
<text text-anchor="middle" x="270" y="-15.5" font-family="sans" font-size="10.00">all</text>
</g>
<!-- 1 -->
<g id="node2" class="node">
<title>1</title>
<path fill="none" stroke="#d8a456" stroke-width="2" d="M289,-108C289,-108 251,-108 251,-108 245,-108 239,-102 239,-96 239,-96 239,-84 239,-84 239,-78 245,-72 251,-72 251,-72 289,-72 289,-72 295,-72 301,-78 301,-84 301,-84 301,-96 301,-96 301,-102 295,-108 289,-108"/>
<text text-anchor="middle" x="270" y="-87.5" font-family="sans" font-size="10.00">try_cluster</text>
</g>
<!-- 1&#45;&gt;0 -->
<g id="edge1" class="edge">
<title>1&#45;&gt;0</title>
<path fill="none" stroke="grey" stroke-width="2" d="M270,-71.34C270,-64.75 270,-57.08 270,-49.67"/>
<polygon fill="grey" stroke="grey" stroke-width="2" points="273.5,-49.9 270,-39.9 266.5,-49.9 273.5,-49.9"/>
</g>
<!-- 2 -->
<g id="node3" class="node">
<title>2</title>
<path fill="none" stroke="#56d8c9" stroke-width="2" d="M42,-182.5C42,-182.5 12,-182.5 12,-182.5 6,-182.5 0,-176.5 0,-170.5 0,-170.5 0,-158.5 0,-158.5 0,-152.5 6,-146.5 12,-146.5 12,-146.5 42,-146.5 42,-146.5 48,-146.5 54,-152.5 54,-158.5 54,-158.5 54,-170.5 54,-170.5 54,-176.5 48,-182.5 42,-182.5"/>
<text text-anchor="middle" x="27" y="-162" font-family="sans" font-size="10.00">canu</text>
</g>
<!-- 2&#45;&gt;1 -->
<g id="edge2" class="edge">
<title>2&#45;&gt;1</title>
<path fill="none" stroke="grey" stroke-width="2" d="M54.98,-147.5C57.65,-146.23 60.35,-145.04 63,-144 117.19,-122.76 182.71,-107.65 225.32,-99.13"/>
<polygon fill="grey" stroke="grey" stroke-width="2" points="226.89,-102 236.03,-96.65 225.55,-95.13 226.89,-102"/>
</g>
<!-- 3 -->
<g id="node4" class="node">
<title>3</title>
<path fill="none" stroke="#56a2d8" stroke-width="2" d="M298,-257C298,-257 242,-257 242,-257 236,-257 230,-251 230,-245 230,-245 230,-233 230,-233 230,-227 236,-221 242,-221 242,-221 298,-221 298,-221 304,-221 310,-227 310,-233 310,-233 310,-245 310,-245 310,-251 304,-257 298,-257"/>
<text text-anchor="middle" x="270" y="-242" font-family="sans" font-size="10.00">qc</text>
<text text-anchor="middle" x="270" y="-231" font-family="sans" font-size="10.00">sample: 30371</text>
</g>
<!-- 3&#45;&gt;2 -->
<g id="edge6" class="edge">
<title>3&#45;&gt;2</title>
<path fill="none" stroke="grey" stroke-width="2" d="M229.01,-230.6C189.22,-222.76 127.15,-208.76 66.99,-186.14"/>
<polygon fill="grey" stroke="grey" stroke-width="2" points="67.57,-182.85 56.98,-182.5 65.05,-189.37 67.57,-182.85"/>
</g>
<!-- 4 -->
<g id="node5" class="node">
<title>4</title>
<path fill="none" stroke="#c6d856" stroke-width="2" d="M114,-182.5C114,-182.5 84,-182.5 84,-182.5 78,-182.5 72,-176.5 72,-170.5 72,-170.5 72,-158.5 72,-158.5 72,-152.5 78,-146.5 84,-146.5 84,-146.5 114,-146.5 114,-146.5 120,-146.5 126,-152.5 126,-158.5 126,-158.5 126,-170.5 126,-170.5 126,-176.5 120,-182.5 114,-182.5"/>
<text text-anchor="middle" x="99" y="-162" font-family="sans" font-size="10.00">miniasm</text>
</g>
<!-- 3&#45;&gt;4 -->
<g id="edge7" class="edge">
<title>3&#45;&gt;4</title>
<path fill="none" stroke="grey" stroke-width="2" d="M229.29,-223.5C204.85,-214.47 173.03,-202.15 138.16,-186.25"/>
<polygon fill="grey" stroke="grey" stroke-width="2" points="139.28,-182.98 128.74,-181.96 136.34,-189.34 139.28,-182.98"/>
</g>
<!-- 5 -->
<g id="node6" class="node">
<title>5</title>
<path fill="none" stroke="#56d87b" stroke-width="2" d="M725.5,-185C725.5,-185 156.5,-185 156.5,-185 150.5,-185 144.5,-179 144.5,-173 144.5,-173 144.5,-156 144.5,-156 144.5,-150 150.5,-144 156.5,-144 156.5,-144 725.5,-144 725.5,-144 731.5,-144 737.5,-150 737.5,-156 737.5,-156 737.5,-173 737.5,-173 737.5,-179 731.5,-185 725.5,-185"/>
<text text-anchor="middle" x="441" y="-173" font-family="sans" font-size="10.00">flye</text>
<text text-anchor="middle" x="441" y="-162" font-family="sans" font-size="10.00">RUN_DATE: 20230413</text>
<text text-anchor="middle" x="441" y="-151" font-family="sans" font-size="10.00">TEMP_RUN_DIR: /Users/ethaneickmann/Documents/Comp_genomics/uhlemann/meta&#45;wgs&#45;ont&#45;pipeline/temp/20230413.FAW74294</text>
</g>
<!-- 3&#45;&gt;5 -->
<g id="edge8" class="edge">
<title>3&#45;&gt;5</title>
<path fill="none" stroke="grey" stroke-width="2" d="M310.96,-220.63C331.91,-211.75 357.81,-200.77 380.97,-190.95"/>
<polygon fill="grey" stroke="grey" stroke-width="2" points="382.95,-194.07 390.79,-186.94 380.22,-187.62 382.95,-194.07"/>
</g>
<!-- 6 -->
<g id="node7" class="node">
<title>6</title>
<path fill="none" stroke="#78d856" stroke-width="2" d="M798,-182.5C798,-182.5 768,-182.5 768,-182.5 762,-182.5 756,-176.5 756,-170.5 756,-170.5 756,-158.5 756,-158.5 756,-152.5 762,-146.5 768,-146.5 768,-146.5 798,-146.5 798,-146.5 804,-146.5 810,-152.5 810,-158.5 810,-158.5 810,-170.5 810,-170.5 810,-176.5 804,-182.5 798,-182.5"/>
<text text-anchor="middle" x="783" y="-162" font-family="sans" font-size="10.00">raven</text>
</g>
<!-- 3&#45;&gt;6 -->
<g id="edge9" class="edge">
<title>3&#45;&gt;6</title>
<path fill="none" stroke="grey" stroke-width="2" d="M310.96,-238.68C392.79,-238.93 581.83,-234 743.1,-185.62"/>
<polygon fill="grey" stroke="grey" stroke-width="2" points="744.63,-188.2 753.16,-181.91 742.57,-181.51 744.63,-188.2"/>
</g>
<!-- 4&#45;&gt;1 -->
<g id="edge3" class="edge">
<title>4&#45;&gt;1</title>
<path fill="none" stroke="grey" stroke-width="2" d="M126.74,-148.04C129.51,-146.63 132.29,-145.26 135,-144 164.86,-130.11 199.45,-116.58 226.13,-106.67"/>
<polygon fill="grey" stroke="grey" stroke-width="2" points="227.99,-109.98 236.17,-103.24 225.58,-103.41 227.99,-109.98"/>
</g>
<!-- 5&#45;&gt;1 -->
<g id="edge4" class="edge">
<title>5&#45;&gt;1</title>
<path fill="none" stroke="grey" stroke-width="2" d="M392.91,-143.11C367.98,-132.54 337.77,-119.73 313.53,-109.46"/>
<polygon fill="grey" stroke="grey" stroke-width="2" points="314.39,-106.17 303.82,-105.49 311.66,-112.62 314.39,-106.17"/>
</g>
<!-- 6&#45;&gt;1 -->
<g id="edge5" class="edge">
<title>6&#45;&gt;1</title>
<path fill="none" stroke="grey" stroke-width="2" d="M755.16,-147.09C752.46,-145.91 749.71,-144.85 747,-144 593.6,-95.95 400.5,-90.22 314.66,-90.32"/>
<polygon fill="grey" stroke="grey" stroke-width="2" points="314.81,-86.83 304.83,-90.38 314.84,-93.83 314.81,-86.83"/>
</g>
</g>
</svg>
