<?xml version="1.0" encoding="UTF-8" standalone="no"?>
<!DOCTYPE svg PUBLIC "-//W3C//DTD SVG 1.1//EN"
 "http://www.w3.org/Graphics/SVG/1.1/DTD/svg11.dtd">
<!-- Generated by graphviz version 8.0.3 (0)
 -->
<!-- Title: snakemake_dag Pages: 1 -->
<svg width="332pt" height="481pt"
 viewBox="0.00 0.00 332.00 481.00" xmlns="http://www.w3.org/2000/svg" xmlns:xlink="http://www.w3.org/1999/xlink">
<g id="graph0" class="graph" transform="scale(1 1) rotate(0) translate(4 477)">
<title>snakemake_dag</title>
<polygon fill="white" stroke="none" points="-4,4 -4,-477 328,-477 328,4 -4,4"/>
<!-- 0 -->
<g id="node1" class="node">
<title>0</title>
<path fill="none" stroke="#d85656" stroke-width="2" d="M165,-36C165,-36 135,-36 135,-36 129,-36 123,-30 123,-24 123,-24 123,-12 123,-12 123,-6 129,0 135,0 135,0 165,0 165,0 171,0 177,-6 177,-12 177,-12 177,-24 177,-24 177,-30 171,-36 165,-36"/>
<text text-anchor="middle" x="150" y="-15.5" font-family="sans" font-size="10.00">all</text>
</g>
<!-- 1 -->
<g id="node2" class="node">
<title>1</title>
<path fill="none" stroke="#56d8a9" stroke-width="2" d="M129,-108C129,-108 99,-108 99,-108 93,-108 87,-102 87,-96 87,-96 87,-84 87,-84 87,-78 93,-72 99,-72 99,-72 129,-72 129,-72 135,-72 141,-78 141,-84 141,-84 141,-96 141,-96 141,-102 135,-108 129,-108"/>
<text text-anchor="middle" x="114" y="-87.5" font-family="sans" font-size="10.00">medaka</text>
</g>
<!-- 1&#45;&gt;0 -->
<g id="edge1" class="edge">
<title>1&#45;&gt;0</title>
<path fill="none" stroke="grey" stroke-width="2" d="M123.08,-71.34C126.68,-64.34 130.91,-56.12 134.94,-48.28"/>
<polygon fill="grey" stroke="grey" stroke-width="2" points="138.33,-49.4 139.79,-38.9 132.11,-46.19 138.33,-49.4"/>
</g>
<!-- 2 -->
<g id="node3" class="node">
<title>2</title>
<path fill="none" stroke="#d8cb56" stroke-width="2" d="M127,-180C127,-180 97,-180 97,-180 91,-180 85,-174 85,-168 85,-168 85,-156 85,-156 85,-150 91,-144 97,-144 97,-144 127,-144 127,-144 133,-144 139,-150 139,-156 139,-156 139,-168 139,-168 139,-174 133,-180 127,-180"/>
<text text-anchor="middle" x="112" y="-159.5" font-family="sans" font-size="10.00">racon</text>
</g>
<!-- 2&#45;&gt;1 -->
<g id="edge3" class="edge">
<title>2&#45;&gt;1</title>
<path fill="none" stroke="grey" stroke-width="2" d="M112.5,-143.34C112.69,-136.75 112.91,-129.08 113.12,-121.67"/>
<polygon fill="grey" stroke="grey" stroke-width="2" points="116.7,-122 113.49,-111.9 109.7,-121.8 116.7,-122"/>
</g>
<!-- 3 -->
<g id="node4" class="node">
<title>3</title>
<path fill="none" stroke="#56c9d8" stroke-width="2" d="M85,-324C85,-324 29,-324 29,-324 23,-324 17,-318 17,-312 17,-312 17,-300 17,-300 17,-294 23,-288 29,-288 29,-288 85,-288 85,-288 91,-288 97,-294 97,-300 97,-300 97,-312 97,-312 97,-318 91,-324 85,-324"/>
<text text-anchor="middle" x="57" y="-303.5" font-family="sans" font-size="10.00">try_consensus</text>
</g>
<!-- 3&#45;&gt;2 -->
<g id="edge4" class="edge">
<title>3&#45;&gt;2</title>
<path fill="none" stroke="grey" stroke-width="2" d="M50.96,-287.05C45.76,-268.4 40.59,-238.83 51,-216 56.09,-204.84 64.81,-195.13 74.09,-187.17"/>
<polygon fill="grey" stroke="grey" stroke-width="2" points="76.51,-189.15 82.24,-180.24 72.2,-183.64 76.51,-189.15"/>
</g>
<!-- 7 -->
<g id="node8" class="node">
<title>7</title>
<path fill="none" stroke="#afd856" stroke-width="2" d="M152,-252C152,-252 72,-252 72,-252 66,-252 60,-246 60,-240 60,-240 60,-228 60,-228 60,-222 66,-216 72,-216 72,-216 152,-216 152,-216 158,-216 164,-222 164,-228 164,-228 164,-240 164,-240 164,-246 158,-252 152,-252"/>
<text text-anchor="middle" x="112" y="-231.5" font-family="sans" font-size="10.00">read_contig_overlap</text>
</g>
<!-- 3&#45;&gt;7 -->
<g id="edge10" class="edge">
<title>3&#45;&gt;7</title>
<path fill="none" stroke="grey" stroke-width="2" d="M70.88,-287.34C76.7,-279.93 83.6,-271.14 90.08,-262.9"/>
<polygon fill="grey" stroke="grey" stroke-width="2" points="93.51,-264.93 96.93,-254.9 88,-260.6 93.51,-264.93"/>
</g>
<!-- 4 -->
<g id="node5" class="node">
<title>4</title>
<path fill="none" stroke="#5692d8" stroke-width="2" d="M42,-396C42,-396 12,-396 12,-396 6,-396 0,-390 0,-384 0,-384 0,-372 0,-372 0,-366 6,-360 12,-360 12,-360 42,-360 42,-360 48,-360 54,-366 54,-372 54,-372 54,-384 54,-384 54,-390 48,-396 42,-396"/>
<text text-anchor="middle" x="27" y="-375.5" font-family="sans" font-size="10.00">try_msa</text>
</g>
<!-- 4&#45;&gt;3 -->
<g id="edge6" class="edge">
<title>4&#45;&gt;3</title>
<path fill="none" stroke="grey" stroke-width="2" d="M34.57,-359.34C37.5,-352.51 40.93,-344.5 44.21,-336.83"/>
<polygon fill="grey" stroke="grey" stroke-width="2" points="47.61,-337.47 48.33,-326.9 41.17,-334.71 47.61,-337.47"/>
</g>
<!-- 5 -->
<g id="node6" class="node">
<title>5</title>
<path fill="none" stroke="#56d873" stroke-width="2" d="M121,-473C121,-473 65,-473 65,-473 59,-473 53,-467 53,-461 53,-461 53,-444 53,-444 53,-438 59,-432 65,-432 65,-432 121,-432 121,-432 127,-432 133,-438 133,-444 133,-444 133,-461 133,-461 133,-467 127,-473 121,-473"/>
<text text-anchor="middle" x="93" y="-461" font-family="sans" font-size="10.00">try_reconcile</text>
<text text-anchor="middle" x="93" y="-450" font-family="sans" font-size="10.00">clus: 1</text>
<text text-anchor="middle" x="93" y="-439" font-family="sans" font-size="10.00">sample: 30371</text>
</g>
<!-- 5&#45;&gt;4 -->
<g id="edge8" class="edge">
<title>5&#45;&gt;4</title>
<path fill="none" stroke="grey" stroke-width="2" d="M74.62,-431.3C67.49,-423.47 59.22,-414.39 51.59,-406.02"/>
<polygon fill="grey" stroke="grey" stroke-width="2" points="54.36,-403.66 45.04,-398.62 49.19,-408.37 54.36,-403.66"/>
</g>
<!-- 6 -->
<g id="node7" class="node">
<title>6</title>
<path fill="none" stroke="#d88d56" stroke-width="2" d="M128,-396C128,-396 84,-396 84,-396 78,-396 72,-390 72,-384 72,-384 72,-372 72,-372 72,-366 78,-360 84,-360 84,-360 128,-360 128,-360 134,-360 140,-366 140,-372 140,-372 140,-384 140,-384 140,-390 134,-396 128,-396"/>
<text text-anchor="middle" x="106" y="-375.5" font-family="sans" font-size="10.00">try_partition</text>
</g>
<!-- 5&#45;&gt;6 -->
<g id="edge9" class="edge">
<title>5&#45;&gt;6</title>
<path fill="none" stroke="grey" stroke-width="2" d="M96.62,-431.3C97.84,-424.5 99.23,-416.74 100.56,-409.33"/>
<polygon fill="grey" stroke="grey" stroke-width="2" points="104.52,-409.08 102.84,-398.62 97.63,-407.85 104.52,-409.08"/>
</g>
<!-- 6&#45;&gt;3 -->
<g id="edge7" class="edge">
<title>6&#45;&gt;3</title>
<path fill="none" stroke="grey" stroke-width="2" d="M93.64,-359.34C88.57,-352.1 82.57,-343.53 76.92,-335.45"/>
<polygon fill="grey" stroke="grey" stroke-width="2" points="79.13,-333.09 70.53,-326.9 73.4,-337.1 79.13,-333.09"/>
</g>
<!-- 7&#45;&gt;2 -->
<g id="edge5" class="edge">
<title>7&#45;&gt;2</title>
<path fill="none" stroke="grey" stroke-width="2" d="M112,-215.34C112,-208.75 112,-201.08 112,-193.67"/>
<polygon fill="grey" stroke="grey" stroke-width="2" points="115.5,-193.9 112,-183.9 108.5,-193.9 115.5,-193.9"/>
</g>
<!-- 8 -->
<g id="node9" class="node">
<title>8</title>
<path fill="none" stroke="#56d8a9" stroke-width="2" d="M205,-108C205,-108 175,-108 175,-108 169,-108 163,-102 163,-96 163,-96 163,-84 163,-84 163,-78 169,-72 175,-72 175,-72 205,-72 205,-72 211,-72 217,-78 217,-84 217,-84 217,-96 217,-96 217,-102 211,-108 205,-108"/>
<text text-anchor="middle" x="190" y="-87.5" font-family="sans" font-size="10.00">medaka</text>
</g>
<!-- 8&#45;&gt;0 -->
<g id="edge2" class="edge">
<title>8&#45;&gt;0</title>
<path fill="none" stroke="grey" stroke-width="2" d="M179.91,-71.34C175.86,-64.26 171.1,-55.92 166.57,-48"/>
<polygon fill="grey" stroke="grey" stroke-width="2" points="169.23,-45.85 161.23,-38.9 163.15,-49.32 169.23,-45.85"/>
</g>
<!-- 9 -->
<g id="node10" class="node">
<title>9</title>
<path fill="none" stroke="#d8cb56" stroke-width="2" d="M207,-180C207,-180 177,-180 177,-180 171,-180 165,-174 165,-168 165,-168 165,-156 165,-156 165,-150 171,-144 177,-144 177,-144 207,-144 207,-144 213,-144 219,-150 219,-156 219,-156 219,-168 219,-168 219,-174 213,-180 207,-180"/>
<text text-anchor="middle" x="192" y="-159.5" font-family="sans" font-size="10.00">racon</text>
</g>
<!-- 9&#45;&gt;8 -->
<g id="edge11" class="edge">
<title>9&#45;&gt;8</title>
<path fill="none" stroke="grey" stroke-width="2" d="M191.5,-143.34C191.31,-136.75 191.09,-129.08 190.88,-121.67"/>
<polygon fill="grey" stroke="grey" stroke-width="2" points="194.3,-121.8 190.51,-111.9 187.3,-122 194.3,-121.8"/>
</g>
<!-- 10 -->
<g id="node11" class="node">
<title>10</title>
<path fill="none" stroke="#56c9d8" stroke-width="2" d="M250,-324C250,-324 194,-324 194,-324 188,-324 182,-318 182,-312 182,-312 182,-300 182,-300 182,-294 188,-288 194,-288 194,-288 250,-288 250,-288 256,-288 262,-294 262,-300 262,-300 262,-312 262,-312 262,-318 256,-324 250,-324"/>
<text text-anchor="middle" x="222" y="-303.5" font-family="sans" font-size="10.00">try_consensus</text>
</g>
<!-- 10&#45;&gt;9 -->
<g id="edge12" class="edge">
<title>10&#45;&gt;9</title>
<path fill="none" stroke="grey" stroke-width="2" d="M218.2,-287.02C213.22,-263.44 204.41,-221.73 198.39,-193.25"/>
<polygon fill="grey" stroke="grey" stroke-width="2" points="201.26,-191.9 195.77,-182.84 194.41,-193.35 201.26,-191.9"/>
</g>
<!-- 14 -->
<g id="node15" class="node">
<title>14</title>
<path fill="none" stroke="#afd856" stroke-width="2" d="M312,-252C312,-252 232,-252 232,-252 226,-252 220,-246 220,-240 220,-240 220,-228 220,-228 220,-222 226,-216 232,-216 232,-216 312,-216 312,-216 318,-216 324,-222 324,-228 324,-228 324,-240 324,-240 324,-246 318,-252 312,-252"/>
<text text-anchor="middle" x="272" y="-231.5" font-family="sans" font-size="10.00">read_contig_overlap</text>
</g>
<!-- 10&#45;&gt;14 -->
<g id="edge18" class="edge">
<title>10&#45;&gt;14</title>
<path fill="none" stroke="grey" stroke-width="2" d="M234.62,-287.34C239.79,-280.1 245.91,-271.53 251.68,-263.45"/>
<polygon fill="grey" stroke="grey" stroke-width="2" points="255.25,-265.07 258.21,-254.9 249.55,-261 255.25,-265.07"/>
</g>
<!-- 11 -->
<g id="node12" class="node">
<title>11</title>
<path fill="none" stroke="#5692d8" stroke-width="2" d="M212,-396C212,-396 182,-396 182,-396 176,-396 170,-390 170,-384 170,-384 170,-372 170,-372 170,-366 176,-360 182,-360 182,-360 212,-360 212,-360 218,-360 224,-366 224,-372 224,-372 224,-384 224,-384 224,-390 218,-396 212,-396"/>
<text text-anchor="middle" x="197" y="-375.5" font-family="sans" font-size="10.00">try_msa</text>
</g>
<!-- 11&#45;&gt;10 -->
<g id="edge14" class="edge">
<title>11&#45;&gt;10</title>
<path fill="none" stroke="grey" stroke-width="2" d="M203.31,-359.34C205.72,-352.59 208.54,-344.69 211.25,-337.11"/>
<polygon fill="grey" stroke="grey" stroke-width="2" points="214.54,-337.5 214.61,-326.9 207.95,-335.14 214.54,-337.5"/>
</g>
<!-- 12 -->
<g id="node13" class="node">
<title>12</title>
<path fill="none" stroke="#56d873" stroke-width="2" d="M249,-473C249,-473 193,-473 193,-473 187,-473 181,-467 181,-461 181,-461 181,-444 181,-444 181,-438 187,-432 193,-432 193,-432 249,-432 249,-432 255,-432 261,-438 261,-444 261,-444 261,-461 261,-461 261,-467 255,-473 249,-473"/>
<text text-anchor="middle" x="221" y="-461" font-family="sans" font-size="10.00">try_reconcile</text>
<text text-anchor="middle" x="221" y="-450" font-family="sans" font-size="10.00">clus: 2</text>
<text text-anchor="middle" x="221" y="-439" font-family="sans" font-size="10.00">sample: 30371</text>
</g>
<!-- 12&#45;&gt;11 -->
<g id="edge16" class="edge">
<title>12&#45;&gt;11</title>
<path fill="none" stroke="grey" stroke-width="2" d="M214.31,-431.3C212,-424.33 209.36,-416.35 206.85,-408.77"/>
<polygon fill="grey" stroke="grey" stroke-width="2" points="209.3,-407.02 202.83,-398.62 202.65,-409.22 209.3,-407.02"/>
</g>
<!-- 13 -->
<g id="node14" class="node">
<title>13</title>
<path fill="none" stroke="#d88d56" stroke-width="2" d="M298,-396C298,-396 254,-396 254,-396 248,-396 242,-390 242,-384 242,-384 242,-372 242,-372 242,-366 248,-360 254,-360 254,-360 298,-360 298,-360 304,-360 310,-366 310,-372 310,-372 310,-384 310,-384 310,-390 304,-396 298,-396"/>
<text text-anchor="middle" x="276" y="-375.5" font-family="sans" font-size="10.00">try_partition</text>
</g>
<!-- 12&#45;&gt;13 -->
<g id="edge17" class="edge">
<title>12&#45;&gt;13</title>
<path fill="none" stroke="grey" stroke-width="2" d="M236.32,-431.3C242.07,-423.73 248.7,-414.98 254.88,-406.84"/>
<polygon fill="grey" stroke="grey" stroke-width="2" points="258.38,-408.7 261.63,-398.62 252.8,-404.47 258.38,-408.7"/>
</g>
<!-- 13&#45;&gt;10 -->
<g id="edge15" class="edge">
<title>13&#45;&gt;10</title>
<path fill="none" stroke="grey" stroke-width="2" d="M262.37,-359.34C256.73,-352.01 250.03,-343.34 243.74,-335.18"/>
<polygon fill="grey" stroke="grey" stroke-width="2" points="245.69,-332.68 236.81,-326.9 240.15,-336.96 245.69,-332.68"/>
</g>
<!-- 14&#45;&gt;9 -->
<g id="edge13" class="edge">
<title>14&#45;&gt;9</title>
<path fill="none" stroke="grey" stroke-width="2" d="M251.81,-215.34C242.79,-207.44 231.96,-197.96 222.01,-189.26"/>
<polygon fill="grey" stroke="grey" stroke-width="2" points="224.29,-185.85 214.46,-181.9 219.68,-191.12 224.29,-185.85"/>
</g>
</g>
</svg>
