<?xml version="1.0" encoding="UTF-8" standalone="no"?>
<!DOCTYPE svg PUBLIC "-//W3C//DTD SVG 1.1//EN"
 "http://www.w3.org/Graphics/SVG/1.1/DTD/svg11.dtd">
<!-- Generated by graphviz version 8.0.3 (0)
 -->
<!-- Title: snakemake_dag Pages: 1 -->
<svg width="341pt" height="481pt"
 viewBox="0.00 0.00 341.08 481.00" xmlns="http://www.w3.org/2000/svg" xmlns:xlink="http://www.w3.org/1999/xlink">
<g id="graph0" class="graph" transform="scale(1 1) rotate(0) translate(4 477)">
<title>snakemake_dag</title>
<polygon fill="white" stroke="none" points="-4,4 -4,-477 337.08,-477 337.08,4 -4,4"/>
<!-- 0 -->
<g id="node1" class="node">
<title>0</title>
<path fill="none" stroke="#d85656" stroke-width="2" d="M181.54,-36C181.54,-36 151.54,-36 151.54,-36 145.54,-36 139.54,-30 139.54,-24 139.54,-24 139.54,-12 139.54,-12 139.54,-6 145.54,0 151.54,0 151.54,0 181.54,0 181.54,0 187.54,0 193.54,-6 193.54,-12 193.54,-12 193.54,-24 193.54,-24 193.54,-30 187.54,-36 181.54,-36"/>
<text text-anchor="middle" x="166.54" y="-15.5" font-family="sans" font-size="10.00">all</text>
</g>
<!-- 1 -->
<g id="node2" class="node">
<title>1</title>
<path fill="none" stroke="#70d856" stroke-width="2" d="M145.54,-108C145.54,-108 115.54,-108 115.54,-108 109.54,-108 103.54,-102 103.54,-96 103.54,-96 103.54,-84 103.54,-84 103.54,-78 109.54,-72 115.54,-72 115.54,-72 145.54,-72 145.54,-72 151.54,-72 157.54,-78 157.54,-84 157.54,-84 157.54,-96 157.54,-96 157.54,-102 151.54,-108 145.54,-108"/>
<text text-anchor="middle" x="130.54" y="-87.5" font-family="sans" font-size="10.00">medaka</text>
</g>
<!-- 1&#45;&gt;0 -->
<g id="edge1" class="edge">
<title>1&#45;&gt;0</title>
<path fill="none" stroke="grey" stroke-width="2" d="M139.63,-71.34C143.22,-64.34 147.45,-56.12 151.48,-48.28"/>
<polygon fill="grey" stroke="grey" stroke-width="2" points="154.87,-49.4 156.33,-38.9 148.65,-46.19 154.87,-49.4"/>
</g>
<!-- 2 -->
<g id="node3" class="node">
<title>2</title>
<path fill="none" stroke="#afd856" stroke-width="2" d="M217.54,-180C217.54,-180 187.54,-180 187.54,-180 181.54,-180 175.54,-174 175.54,-168 175.54,-168 175.54,-156 175.54,-156 175.54,-150 181.54,-144 187.54,-144 187.54,-144 217.54,-144 217.54,-144 223.54,-144 229.54,-150 229.54,-156 229.54,-156 229.54,-168 229.54,-168 229.54,-174 223.54,-180 217.54,-180"/>
<text text-anchor="middle" x="202.54" y="-159.5" font-family="sans" font-size="10.00">racon</text>
</g>
<!-- 2&#45;&gt;1 -->
<g id="edge3" class="edge">
<title>2&#45;&gt;1</title>
<path fill="none" stroke="grey" stroke-width="2" d="M184.37,-143.34C176.42,-135.6 166.91,-126.36 158.11,-117.81"/>
<polygon fill="grey" stroke="grey" stroke-width="2" points="160.56,-115.36 150.95,-110.9 155.68,-120.38 160.56,-115.36"/>
</g>
<!-- 14 -->
<g id="node15" class="node">
<title>14</title>
<path fill="none" stroke="#70d856" stroke-width="2" d="M217.54,-108C217.54,-108 187.54,-108 187.54,-108 181.54,-108 175.54,-102 175.54,-96 175.54,-96 175.54,-84 175.54,-84 175.54,-78 181.54,-72 187.54,-72 187.54,-72 217.54,-72 217.54,-72 223.54,-72 229.54,-78 229.54,-84 229.54,-84 229.54,-96 229.54,-96 229.54,-102 223.54,-108 217.54,-108"/>
<text text-anchor="middle" x="202.54" y="-87.5" font-family="sans" font-size="10.00">medaka</text>
</g>
<!-- 2&#45;&gt;14 -->
<g id="edge33" class="edge">
<title>2&#45;&gt;14</title>
<path fill="none" stroke="grey" stroke-width="2" d="M202.54,-143.34C202.54,-136.75 202.54,-129.08 202.54,-121.67"/>
<polygon fill="grey" stroke="grey" stroke-width="2" points="206.04,-121.9 202.54,-111.9 199.04,-121.9 206.04,-121.9"/>
</g>
<!-- 3 -->
<g id="node4" class="node">
<title>3</title>
<path fill="none" stroke="#56d8a9" stroke-width="2" d="M145.54,-324C145.54,-324 89.54,-324 89.54,-324 83.54,-324 77.54,-318 77.54,-312 77.54,-312 77.54,-300 77.54,-300 77.54,-294 83.54,-288 89.54,-288 89.54,-288 145.54,-288 145.54,-288 151.54,-288 157.54,-294 157.54,-300 157.54,-300 157.54,-312 157.54,-312 157.54,-318 151.54,-324 145.54,-324"/>
<text text-anchor="middle" x="117.54" y="-303.5" font-family="sans" font-size="10.00">try_consensus</text>
</g>
<!-- 3&#45;&gt;2 -->
<g id="edge5" class="edge">
<title>3&#45;&gt;2</title>
<path fill="none" stroke="grey" stroke-width="2" d="M128.31,-287.02C142.68,-263.01 168.29,-220.21 185.35,-191.72"/>
<polygon fill="grey" stroke="grey" stroke-width="2" points="188.73,-193.22 190.86,-182.84 182.72,-189.62 188.73,-193.22"/>
</g>
<!-- 11 -->
<g id="node12" class="node">
<title>11</title>
<path fill="none" stroke="#d8cb56" stroke-width="2" d="M107.54,-252C107.54,-252 27.54,-252 27.54,-252 21.54,-252 15.54,-246 15.54,-240 15.54,-240 15.54,-228 15.54,-228 15.54,-222 21.54,-216 27.54,-216 27.54,-216 107.54,-216 107.54,-216 113.54,-216 119.54,-222 119.54,-228 119.54,-228 119.54,-240 119.54,-240 119.54,-246 113.54,-252 107.54,-252"/>
<text text-anchor="middle" x="67.54" y="-231.5" font-family="sans" font-size="10.00">read_contig_overlap</text>
</g>
<!-- 3&#45;&gt;11 -->
<g id="edge25" class="edge">
<title>3&#45;&gt;11</title>
<path fill="none" stroke="grey" stroke-width="2" d="M104.92,-287.34C99.75,-280.1 93.64,-271.53 87.86,-263.45"/>
<polygon fill="grey" stroke="grey" stroke-width="2" points="89.99,-261 81.33,-254.9 84.29,-265.07 89.99,-261"/>
</g>
<!-- 12 -->
<g id="node13" class="node">
<title>12</title>
<path fill="none" stroke="#d8cb56" stroke-width="2" d="M305.54,-252C305.54,-252 225.54,-252 225.54,-252 219.54,-252 213.54,-246 213.54,-240 213.54,-240 213.54,-228 213.54,-228 213.54,-222 219.54,-216 225.54,-216 225.54,-216 305.54,-216 305.54,-216 311.54,-216 317.54,-222 317.54,-228 317.54,-228 317.54,-240 317.54,-240 317.54,-246 311.54,-252 305.54,-252"/>
<text text-anchor="middle" x="265.54" y="-231.5" font-family="sans" font-size="10.00">read_contig_overlap</text>
</g>
<!-- 3&#45;&gt;12 -->
<g id="edge27" class="edge">
<title>3&#45;&gt;12</title>
<path fill="none" stroke="grey" stroke-width="2" d="M155.27,-287.15C173.73,-278.43 196.18,-267.81 216,-258.43"/>
<polygon fill="grey" stroke="grey" stroke-width="2" points="218.08,-261.37 225.62,-253.93 215.09,-255.05 218.08,-261.37"/>
</g>
<!-- 13 -->
<g id="node14" class="node">
<title>13</title>
<path fill="none" stroke="#afd856" stroke-width="2" d="M145.54,-180C145.54,-180 115.54,-180 115.54,-180 109.54,-180 103.54,-174 103.54,-168 103.54,-168 103.54,-156 103.54,-156 103.54,-150 109.54,-144 115.54,-144 115.54,-144 145.54,-144 145.54,-144 151.54,-144 157.54,-150 157.54,-156 157.54,-156 157.54,-168 157.54,-168 157.54,-174 151.54,-180 145.54,-180"/>
<text text-anchor="middle" x="130.54" y="-159.5" font-family="sans" font-size="10.00">racon</text>
</g>
<!-- 3&#45;&gt;13 -->
<g id="edge29" class="edge">
<title>3&#45;&gt;13</title>
<path fill="none" stroke="grey" stroke-width="2" d="M76.62,-296.93C51.72,-289.69 21.86,-276.29 6.54,-252 -1.99,-238.47 -2.27,-229.35 6.54,-216 25,-188.04 61.56,-174.78 90.22,-168.52"/>
<polygon fill="grey" stroke="grey" stroke-width="2" points="91.58,-171.44 100.74,-166.11 90.26,-164.56 91.58,-171.44"/>
</g>
<!-- 4 -->
<g id="node5" class="node">
<title>4</title>
<path fill="none" stroke="#56d873" stroke-width="2" d="M70.54,-396C70.54,-396 40.54,-396 40.54,-396 34.54,-396 28.54,-390 28.54,-384 28.54,-384 28.54,-372 28.54,-372 28.54,-366 34.54,-360 40.54,-360 40.54,-360 70.54,-360 70.54,-360 76.54,-360 82.54,-366 82.54,-372 82.54,-372 82.54,-384 82.54,-384 82.54,-390 76.54,-396 70.54,-396"/>
<text text-anchor="middle" x="55.54" y="-375.5" font-family="sans" font-size="10.00">try_msa</text>
</g>
<!-- 4&#45;&gt;3 -->
<g id="edge9" class="edge">
<title>4&#45;&gt;3</title>
<path fill="none" stroke="grey" stroke-width="2" d="M71.19,-359.34C77.82,-351.85 85.7,-342.95 93.07,-334.63"/>
<polygon fill="grey" stroke="grey" stroke-width="2" points="95.67,-336.71 99.69,-326.9 90.43,-332.07 95.67,-336.71"/>
</g>
<!-- 10 -->
<g id="node11" class="node">
<title>10</title>
<path fill="none" stroke="#56d8a9" stroke-width="2" d="M243.54,-324C243.54,-324 187.54,-324 187.54,-324 181.54,-324 175.54,-318 175.54,-312 175.54,-312 175.54,-300 175.54,-300 175.54,-294 181.54,-288 187.54,-288 187.54,-288 243.54,-288 243.54,-288 249.54,-288 255.54,-294 255.54,-300 255.54,-300 255.54,-312 255.54,-312 255.54,-318 249.54,-324 243.54,-324"/>
<text text-anchor="middle" x="215.54" y="-303.5" font-family="sans" font-size="10.00">try_consensus</text>
</g>
<!-- 4&#45;&gt;10 -->
<g id="edge21" class="edge">
<title>4&#45;&gt;10</title>
<path fill="none" stroke="grey" stroke-width="2" d="M83.4,-363.72C86.15,-362.45 88.89,-361.19 91.54,-360 114.78,-349.55 140.68,-338.41 162.77,-329.05"/>
<polygon fill="grey" stroke="grey" stroke-width="2" points="164.75,-332.16 172.6,-325.05 162.03,-325.71 164.75,-332.16"/>
</g>
<!-- 5 -->
<g id="node6" class="node">
<title>5</title>
<path fill="none" stroke="#56c9d8" stroke-width="2" d="M145.54,-473C145.54,-473 89.54,-473 89.54,-473 83.54,-473 77.54,-467 77.54,-461 77.54,-461 77.54,-444 77.54,-444 77.54,-438 83.54,-432 89.54,-432 89.54,-432 145.54,-432 145.54,-432 151.54,-432 157.54,-438 157.54,-444 157.54,-444 157.54,-461 157.54,-461 157.54,-467 151.54,-473 145.54,-473"/>
<text text-anchor="middle" x="117.54" y="-461" font-family="sans" font-size="10.00">try_reconcile</text>
<text text-anchor="middle" x="117.54" y="-450" font-family="sans" font-size="10.00">clus: 1</text>
<text text-anchor="middle" x="117.54" y="-439" font-family="sans" font-size="10.00">sample: 30371</text>
</g>
<!-- 5&#45;&gt;4 -->
<g id="edge13" class="edge">
<title>5&#45;&gt;4</title>
<path fill="none" stroke="grey" stroke-width="2" d="M100.27,-431.3C93.65,-423.56 85.98,-414.59 78.88,-406.29"/>
<polygon fill="grey" stroke="grey" stroke-width="2" points="80.77,-403.95 71.61,-398.62 75.45,-408.5 80.77,-403.95"/>
</g>
<!-- 7 -->
<g id="node8" class="node">
<title>7</title>
<path fill="none" stroke="#56d873" stroke-width="2" d="M142.54,-396C142.54,-396 112.54,-396 112.54,-396 106.54,-396 100.54,-390 100.54,-384 100.54,-384 100.54,-372 100.54,-372 100.54,-366 106.54,-360 112.54,-360 112.54,-360 142.54,-360 142.54,-360 148.54,-360 154.54,-366 154.54,-372 154.54,-372 154.54,-384 154.54,-384 154.54,-390 148.54,-396 142.54,-396"/>
<text text-anchor="middle" x="127.54" y="-375.5" font-family="sans" font-size="10.00">try_msa</text>
</g>
<!-- 5&#45;&gt;7 -->
<g id="edge15" class="edge">
<title>5&#45;&gt;7</title>
<path fill="none" stroke="grey" stroke-width="2" d="M120.33,-431.3C121.27,-424.5 122.34,-416.74 123.36,-409.33"/>
<polygon fill="grey" stroke="grey" stroke-width="2" points="127.21,-409.01 125.11,-398.62 120.28,-408.05 127.21,-409.01"/>
</g>
<!-- 8 -->
<g id="node9" class="node">
<title>8</title>
<path fill="none" stroke="#5692d8" stroke-width="2" d="M228.54,-396C228.54,-396 184.54,-396 184.54,-396 178.54,-396 172.54,-390 172.54,-384 172.54,-384 172.54,-372 172.54,-372 172.54,-366 178.54,-360 184.54,-360 184.54,-360 228.54,-360 228.54,-360 234.54,-360 240.54,-366 240.54,-372 240.54,-372 240.54,-384 240.54,-384 240.54,-390 234.54,-396 228.54,-396"/>
<text text-anchor="middle" x="206.54" y="-375.5" font-family="sans" font-size="10.00">try_partition</text>
</g>
<!-- 5&#45;&gt;8 -->
<g id="edge17" class="edge">
<title>5&#45;&gt;8</title>
<path fill="none" stroke="grey" stroke-width="2" d="M142.33,-431.3C152.39,-423.11 164.13,-413.55 174.8,-404.86"/>
<polygon fill="grey" stroke="grey" stroke-width="2" points="177.07,-406.89 182.61,-397.86 172.65,-401.47 177.07,-406.89"/>
</g>
<!-- 9 -->
<g id="node10" class="node">
<title>9</title>
<path fill="none" stroke="#5692d8" stroke-width="2" d="M314.54,-396C314.54,-396 270.54,-396 270.54,-396 264.54,-396 258.54,-390 258.54,-384 258.54,-384 258.54,-372 258.54,-372 258.54,-366 264.54,-360 270.54,-360 270.54,-360 314.54,-360 314.54,-360 320.54,-360 326.54,-366 326.54,-372 326.54,-372 326.54,-384 326.54,-384 326.54,-390 320.54,-396 314.54,-396"/>
<text text-anchor="middle" x="292.54" y="-375.5" font-family="sans" font-size="10.00">try_partition</text>
</g>
<!-- 5&#45;&gt;9 -->
<g id="edge19" class="edge">
<title>5&#45;&gt;9</title>
<path fill="none" stroke="grey" stroke-width="2" d="M158.13,-434.68C184.43,-423.79 218.75,-409.57 246.13,-398.23"/>
<polygon fill="grey" stroke="grey" stroke-width="2" points="247.88,-401.46 255.78,-394.4 245.21,-394.99 247.88,-401.46"/>
</g>
<!-- 6 -->
<g id="node7" class="node">
<title>6</title>
<path fill="none" stroke="#56c9d8" stroke-width="2" d="M243.54,-473C243.54,-473 187.54,-473 187.54,-473 181.54,-473 175.54,-467 175.54,-461 175.54,-461 175.54,-444 175.54,-444 175.54,-438 181.54,-432 187.54,-432 187.54,-432 243.54,-432 243.54,-432 249.54,-432 255.54,-438 255.54,-444 255.54,-444 255.54,-461 255.54,-461 255.54,-467 249.54,-473 243.54,-473"/>
<text text-anchor="middle" x="215.54" y="-461" font-family="sans" font-size="10.00">try_reconcile</text>
<text text-anchor="middle" x="215.54" y="-450" font-family="sans" font-size="10.00">clus: 2</text>
<text text-anchor="middle" x="215.54" y="-439" font-family="sans" font-size="10.00">sample: 30371</text>
</g>
<!-- 6&#45;&gt;4 -->
<g id="edge14" class="edge">
<title>6&#45;&gt;4</title>
<path fill="none" stroke="grey" stroke-width="2" d="M174.68,-433.46C153.1,-423.88 125.94,-411.73 94.99,-397.55"/>
<polygon fill="grey" stroke="grey" stroke-width="2" points="95.97,-394.23 85.42,-393.23 93.05,-400.59 95.97,-394.23"/>
</g>
<!-- 6&#45;&gt;7 -->
<g id="edge16" class="edge">
<title>6&#45;&gt;7</title>
<path fill="none" stroke="grey" stroke-width="2" d="M191.03,-431.3C181.19,-423.2 169.72,-413.75 159.25,-405.13"/>
<polygon fill="grey" stroke="grey" stroke-width="2" points="161.17,-401.52 151.22,-397.86 156.72,-406.92 161.17,-401.52"/>
</g>
<!-- 6&#45;&gt;8 -->
<g id="edge18" class="edge">
<title>6&#45;&gt;8</title>
<path fill="none" stroke="grey" stroke-width="2" d="M213.03,-431.3C212.19,-424.5 211.23,-416.74 210.31,-409.33"/>
<polygon fill="grey" stroke="grey" stroke-width="2" points="213.43,-409.12 208.73,-399.62 206.49,-409.98 213.43,-409.12"/>
</g>
<!-- 6&#45;&gt;9 -->
<g id="edge20" class="edge">
<title>6&#45;&gt;9</title>
<path fill="none" stroke="grey" stroke-width="2" d="M236.99,-431.3C245.42,-423.37 255.22,-414.14 264.22,-405.67"/>
<polygon fill="grey" stroke="grey" stroke-width="2" points="266.69,-408.27 271.57,-398.86 261.89,-403.17 266.69,-408.27"/>
</g>
<!-- 7&#45;&gt;3 -->
<g id="edge10" class="edge">
<title>7&#45;&gt;3</title>
<path fill="none" stroke="grey" stroke-width="2" d="M125.02,-359.34C124.08,-352.75 122.98,-345.08 121.92,-337.67"/>
<polygon fill="grey" stroke="grey" stroke-width="2" points="124.98,-336.31 120.1,-326.9 118.05,-337.3 124.98,-336.31"/>
</g>
<!-- 7&#45;&gt;10 -->
<g id="edge22" class="edge">
<title>7&#45;&gt;10</title>
<path fill="none" stroke="grey" stroke-width="2" d="M149.75,-359.34C159.78,-351.36 171.83,-341.77 182.87,-332.99"/>
<polygon fill="grey" stroke="grey" stroke-width="2" points="185.39,-334.87 191.04,-325.9 181.03,-329.39 185.39,-334.87"/>
</g>
<!-- 8&#45;&gt;3 -->
<g id="edge11" class="edge">
<title>8&#45;&gt;3</title>
<path fill="none" stroke="grey" stroke-width="2" d="M184.08,-359.34C173.83,-351.27 161.49,-341.57 150.24,-332.72"/>
<polygon fill="grey" stroke="grey" stroke-width="2" points="152.33,-329.33 142.3,-325.9 148,-334.83 152.33,-329.33"/>
</g>
<!-- 8&#45;&gt;10 -->
<g id="edge23" class="edge">
<title>8&#45;&gt;10</title>
<path fill="none" stroke="grey" stroke-width="2" d="M208.81,-359.34C209.66,-352.75 210.65,-345.08 211.6,-337.67"/>
<polygon fill="grey" stroke="grey" stroke-width="2" points="215.44,-338.27 213.24,-327.9 208.49,-337.37 215.44,-338.27"/>
</g>
<!-- 9&#45;&gt;3 -->
<g id="edge12" class="edge">
<title>9&#45;&gt;3</title>
<path fill="none" stroke="grey" stroke-width="2" d="M257.55,-363C232.5,-352.98 198.34,-339.32 170.04,-328"/>
<polygon fill="grey" stroke="grey" stroke-width="2" points="170.89,-324.77 160.31,-324.31 168.29,-331.27 170.89,-324.77"/>
</g>
<!-- 9&#45;&gt;10 -->
<g id="edge24" class="edge">
<title>9&#45;&gt;10</title>
<path fill="none" stroke="grey" stroke-width="2" d="M273.11,-359.34C264.51,-351.52 254.22,-342.16 244.73,-333.53"/>
<polygon fill="grey" stroke="grey" stroke-width="2" points="246.99,-331.04 237.23,-326.9 242.28,-336.22 246.99,-331.04"/>
</g>
<!-- 10&#45;&gt;2 -->
<g id="edge6" class="edge">
<title>10&#45;&gt;2</title>
<path fill="none" stroke="grey" stroke-width="2" d="M256.46,-296.93C281.36,-289.69 311.22,-276.29 326.54,-252 335.08,-238.47 335.36,-229.35 326.54,-216 308.09,-188.04 271.52,-174.78 242.86,-168.52"/>
<polygon fill="grey" stroke="grey" stroke-width="2" points="242.82,-164.56 232.34,-166.11 241.5,-171.44 242.82,-164.56"/>
</g>
<!-- 10&#45;&gt;11 -->
<g id="edge26" class="edge">
<title>10&#45;&gt;11</title>
<path fill="none" stroke="grey" stroke-width="2" d="M177.81,-287.15C159.36,-278.43 136.9,-267.81 117.08,-258.43"/>
<polygon fill="grey" stroke="grey" stroke-width="2" points="118,-255.05 107.46,-253.93 115,-261.37 118,-255.05"/>
</g>
<!-- 10&#45;&gt;12 -->
<g id="edge28" class="edge">
<title>10&#45;&gt;12</title>
<path fill="none" stroke="grey" stroke-width="2" d="M228.16,-287.34C233.33,-280.1 239.45,-271.53 245.22,-263.45"/>
<polygon fill="grey" stroke="grey" stroke-width="2" points="248.79,-265.07 251.75,-254.9 243.09,-261 248.79,-265.07"/>
</g>
<!-- 10&#45;&gt;13 -->
<g id="edge30" class="edge">
<title>10&#45;&gt;13</title>
<path fill="none" stroke="grey" stroke-width="2" d="M204.78,-287.02C190.41,-263.01 164.79,-220.21 147.73,-191.72"/>
<polygon fill="grey" stroke="grey" stroke-width="2" points="150.36,-189.62 142.22,-182.84 144.35,-193.22 150.36,-189.62"/>
</g>
<!-- 11&#45;&gt;2 -->
<g id="edge7" class="edge">
<title>11&#45;&gt;2</title>
<path fill="none" stroke="grey" stroke-width="2" d="M101.96,-215.15C120.59,-205.49 143.69,-193.52 163.05,-183.48"/>
<polygon fill="grey" stroke="grey" stroke-width="2" points="165.28,-186.23 172.55,-178.51 162.06,-180.01 165.28,-186.23"/>
</g>
<!-- 11&#45;&gt;13 -->
<g id="edge31" class="edge">
<title>11&#45;&gt;13</title>
<path fill="none" stroke="grey" stroke-width="2" d="M83.44,-215.34C90.25,-207.77 98.36,-198.75 105.92,-190.35"/>
<polygon fill="grey" stroke="grey" stroke-width="2" points="108.34,-192.68 112.43,-182.9 103.14,-187.99 108.34,-192.68"/>
</g>
<!-- 12&#45;&gt;2 -->
<g id="edge8" class="edge">
<title>12&#45;&gt;2</title>
<path fill="none" stroke="grey" stroke-width="2" d="M249.64,-215.34C242.83,-207.77 234.72,-198.75 227.16,-190.35"/>
<polygon fill="grey" stroke="grey" stroke-width="2" points="229.94,-187.99 220.65,-182.9 224.74,-192.68 229.94,-187.99"/>
</g>
<!-- 12&#45;&gt;13 -->
<g id="edge32" class="edge">
<title>12&#45;&gt;13</title>
<path fill="none" stroke="grey" stroke-width="2" d="M231.13,-215.15C212.49,-205.49 189.39,-193.52 170.03,-183.48"/>
<polygon fill="grey" stroke="grey" stroke-width="2" points="171.02,-180.01 160.53,-178.51 167.8,-186.23 171.02,-180.01"/>
</g>
<!-- 13&#45;&gt;1 -->
<g id="edge4" class="edge">
<title>13&#45;&gt;1</title>
<path fill="none" stroke="grey" stroke-width="2" d="M130.54,-143.34C130.54,-136.75 130.54,-129.08 130.54,-121.67"/>
<polygon fill="grey" stroke="grey" stroke-width="2" points="134.04,-121.9 130.54,-111.9 127.04,-121.9 134.04,-121.9"/>
</g>
<!-- 13&#45;&gt;14 -->
<g id="edge34" class="edge">
<title>13&#45;&gt;14</title>
<path fill="none" stroke="grey" stroke-width="2" d="M148.71,-143.34C156.66,-135.6 166.17,-126.36 174.97,-117.81"/>
<polygon fill="grey" stroke="grey" stroke-width="2" points="177.4,-120.38 182.13,-110.9 172.52,-115.36 177.4,-120.38"/>
</g>
<!-- 14&#45;&gt;0 -->
<g id="edge2" class="edge">
<title>14&#45;&gt;0</title>
<path fill="none" stroke="grey" stroke-width="2" d="M193.46,-71.34C189.86,-64.34 185.63,-56.12 181.6,-48.28"/>
<polygon fill="grey" stroke="grey" stroke-width="2" points="184.43,-46.19 176.75,-38.9 178.21,-49.4 184.43,-46.19"/>
</g>
</g>
</svg>
